<?xml version="1.0" encoding="UTF-8" standalone="no"?>
<!-- Created with Inkscape (http://www.inkscape.org/) -->

<svg
   version="1.1"
   id="svg1"
   width="433.60001"
   height="89.599998"
   viewBox="0 0 433.60001 89.599998"
   sodipodi:docname="logo.svg"
   inkscape:version="1.4 (86a8ad7, 2024-10-11)"
   xmlns:inkscape="http://www.inkscape.org/namespaces/inkscape"
   xmlns:sodipodi="http://sodipodi.sourceforge.net/DTD/sodipodi-0.dtd"
   xmlns="http://www.w3.org/2000/svg"
   xmlns:svg="http://www.w3.org/2000/svg">
  <defs
     id="defs1" />
  <sodipodi:namedview
     id="namedview1"
     pagecolor="#ffffff"
     bordercolor="#000000"
     borderopacity="0.25"
     inkscape:showpageshadow="2"
     inkscape:pageopacity="0.0"
     inkscape:pagecheckerboard="0"
     inkscape:deskcolor="#d1d1d1"
     inkscape:zoom="2.7825184"
     inkscape:cx="164.06001"
     inkscape:cy="59.478492"
     inkscape:window-width="2560"
     inkscape:window-height="1351"
     inkscape:window-x="2551"
     inkscape:window-y="-9"
     inkscape:window-maximized="1"
     inkscape:current-layer="g1" />
  <g
     inkscape:groupmode="layer"
     inkscape:label="Image"
     id="g1">
    <path
       style="fill:#ffffff;fill-opacity:1;stroke-width:1.19671"
       d="M 4.3869807,85.227364 2.2766676,83.041719 V 45.69211 8.3425127 L 4.2882415,5.8542984 6.2998153,3.3660723 H 24.558653 c 14.460047,0 19.31083,0.3305807 23.315216,1.5889121 19.02045,5.9769876 24.673438,30.2626576 10.299675,44.2481496 -3.951268,3.844535 -4.918817,5.332532 -4.237568,6.516979 5.960449,10.363023 -8.288542,15.939596 -14.747202,5.771558 l -2.130081,-3.353438 h -9.626492 -9.626492 v 12.584081 12.58407 l -2.246326,2.053318 C 12.481127,88.173458 7.1707968,88.110552 4.3869807,85.227364 Z M 43.751897,42.712894 c 8.395115,-4.293688 8.49985,-18.87542 0.165509,-23.042908 -1.472086,-0.736095 -6.719765,-1.171652 -14.222274,-1.180435 l -11.889423,-0.01392 v 13.337257 13.337269 l 11.40414,-0.416203 c 8.185178,-0.298708 12.289853,-0.869189 14.542048,-2.021069 z M 55.840758,85.48752 c -3.351971,-3.038474 -3.170953,-7.924799 0.409707,-11.05929 5.56709,-4.873412 12.688369,-0.462069 12.136397,7.517987 -0.178717,2.583629 -4.076689,5.466793 -7.391006,5.466793 -1.708694,0 -3.957617,-0.839998 -5.155098,-1.92549 z M 90.462969,85.608527 88.17167,83.804044 87.89,47.598536 C 87.735085,27.685503 87.855424,10.426062 88.15733,9.2442232 89.634494,3.4625611 96.173834,1.6259819 100.97753,5.6436498 l 2.72318,2.2775777 0.32614,15.6650265 0.32615,15.665027 h 18.35723 18.35723 v -3.612778 c 0,-7.285547 7.88205,-10.52394 13.14676,-5.401457 l 2.38228,2.317949 V 57.66606 82.777113 l -2.38228,2.317948 c -3.1522,3.067052 -8.14505,3.1269 -11.03644,0.132303 l -2.11032,-2.185645 V 68.229108 53.416496 h -18.44073 -18.44074 v 13.159389 c 0,19.268174 -4.86186,26.011147 -13.723021,19.032642 z m 93.053291,0.624049 c -3.13833,-2.318787 -3.6262,-6.330848 -3.62467,-29.808428 l 0.001,-23.311126 1.69698,-3.248981 c 3.01691,-5.776067 10.55395,-5.807372 13.54369,-0.05619 1.90039,3.655641 1.75854,50.14284 -0.16404,53.76027 -2.08173,3.916882 -7.92014,5.275114 -11.45346,2.664501 z m 57.26334,0 c -3.25271,-2.403294 -3.62619,-6.227171 -3.62619,-37.127121 V 18.475633 h -9.65998 c -15.00449,0 -21.38605,-5.763659 -14.16298,-12.7916241 l 2.3823,-2.3179366 h 16.37454 16.37454 l 2.11031,2.1856454 2.11031,2.1856453 v 37.77106 37.77106 l -1.97894,2.066763 c -2.22825,2.327156 -7.35422,2.784964 -9.92391,0.88633 z m 72.51906,-1.137515 -2.3823,-2.317948 V 50.626373 18.475633 H 300.19603 289.4757 l -2.3823,-2.317947 c -3.1522,-3.067053 -3.21371,-7.9250245 -0.13598,-10.7383069 l 2.24634,-2.0533068 h 16.23852 16.23853 l 2.3823,2.3179366 2.38229,2.3179485 V 45.219264 82.436558 l -2.01157,2.488226 c -2.70174,3.341928 -7.79542,3.419813 -11.13517,0.170277 z m 37.59387,0.392459 c -3.9764,-3.604515 -3.0572,-6.226237 15.37968,-43.865678 24.49407,-50.0053665 23.34693,-49.7665527 43.14087,-8.980994 12.79007,26.354051 13.50228,28.65172 9.90137,31.943207 l -2.24632,2.053307 h -22.76419 -22.76419 l -4.25053,9.015959 c -5.56068,11.794914 -10.78019,14.925414 -16.39669,9.834199 z m 50.69749,-31.954244 c 0.28911,-0.455164 -2.16844,-6.182904 -5.46122,-12.728295 l -5.98689,-11.90074 -6.12828,12.382323 c -3.37055,6.810268 -6.12827,12.538009 -6.12827,12.728294 0,0.760637 23.2152,0.288995 23.70466,-0.481582 z m 17.77355,32.6993 c -6.94076,-5.128245 -0.0973,-16.46005 7.73477,-12.807644 7.71886,3.599617 5.23307,13.988078 -3.34712,13.988078 -1.5345,0 -3.50893,-0.531195 -4.38765,-1.180434 z M 143.44976,16.157686 c -6.58439,-6.4065367 2.27606,-16.59847964 9.9082,-11.397131 4.32704,2.9489261 3.58575,10.508747 -1.24026,12.648226 -3.68214,1.632376 -6.05665,1.289648 -8.66794,-1.251095 z m 123.30193,0.193166 c -5.2549,-4.398264 -1.81918,-13.0348301 5.15354,-12.9547494 7.30966,0.083929 10.14121,8.7475274 4.31611,13.2057694 -3.20624,2.453909 -6.33705,2.370913 -9.46965,-0.25102 z m 74.56392,1.002201 c -2.72863,-1.283546 -4.4844,-5.44976 -3.65375,-8.6699137 1.38902,-5.3848121 8.43242,-7.0604508 12.60651,-2.9991304 6.30313,6.1328761 -0.86371,15.4741381 -8.95276,11.6690441 z M 184.6032,15.177134 c -8.43758,-4.532952 -2.25869,-16.854126 6.62872,-13.218187 4.97038,2.0334284 6.17314,9.176285 2.0991,12.466097 -2.2954,1.853553 -6.07185,2.178975 -8.72782,0.75209 z"
       id="path1" />
  </g>
</svg>
